<?xml version="1.0" encoding="UTF-8"?>
<svg version="1.1" xmlns="http://www.w3.org/2000/svg" width="2000" height="2066">
<path d="M0 0 C0.96513519 -0.0066568 1.93027039 -0.0133136 2.9246521 -0.02017212 C4.9531669 -0.03022167 6.98171424 -0.03499155 9.01025391 -0.03466797 C12.05819371 -0.03902286 15.10466069 -0.07537597 18.15234375 -0.11328125 C53.59522798 -0.31780448 82.03497723 15.30255181 106.88330078 39.73535156 C171.31940023 105.10877589 193.0294914 202.71214163 217.0859375 485.1484375 C217.11747547 485.99550514 217.14901344 486.84257278 217.18150711 487.71530914 C217.54827105 497.58666549 217.90032831 507.45839013 218.22650909 517.3311758 C218.34954146 521.05187711 218.47536255 524.77236924 218.61404419 528.49252319 C219.86978718 562.30717267 219.65835544 596.15472122 219.64891291 629.98731804 C219.64843442 632.53989056 219.64859 635.09246226 219.64896774 637.64503479 C219.65686303 692.4203045 219.18217734 747.17343826 218.27998352 801.94071996 C218.18732268 807.56594161 218.094979 813.19116842 218.00305748 818.8164022 C217.98021817 820.21286471 217.95732632 821.60932636 217.93438148 823.00578713 C217.41589803 854.58786741 217.14591522 886.17045532 216.92684937 917.75585175 C216.88025468 924.4682658 216.83162528 931.18066534 216.78320312 937.89306641 C216.77388134 939.18579279 216.76455956 940.47851917 216.75495529 941.81041908 C216.73642067 944.37773151 216.71785994 946.94504376 216.69927216 949.5123558 C216.68109863 952.02276447 216.66297576 954.53317351 216.64490509 957.04358292 C216.09013469 1033.85469358 214.31744608 1110.5754973 211.4609375 1187.3359375 C210.02652076 1225.5883716 210.02652076 1225.5883716 208.79296875 1263.84765625 C208.7606141 1264.93607787 208.7606141 1264.93607787 208.72760582 1266.04648781 C207.87052567 1295.14857024 207.32414849 1324.25932747 206.9375 1353.37109375 C206.9218154 1354.5339356 206.9218154 1354.5339356 206.90581393 1355.7202692 C206.53100075 1383.54476915 206.33425614 1411.36864087 206.21484375 1439.1953125 C206.20639134 1441.1255322 206.1979284 1443.05575185 206.18945503 1444.98597145 C206.1125394 1462.62847444 206.04203618 1480.2709983 205.98413086 1497.91357422 C205.85237569 1537.50275415 205.6626772 1577.07755656 204.51171875 1616.65234375 C204.4910526 1617.3679481 204.47038645 1618.08355246 204.44909406 1618.82084179 C201.67337082 1714.37582357 198.69201591 1814.9568807 166.8359375 1924.6484375 C166.43858398 1925.86744751 166.43858398 1925.86744751 166.03320312 1927.11108398 C162.62791227 1936.81179183 155.84130983 1939.99716905 147.0234375 1944.3984375 C144.75166089 1945.55544141 142.48084387 1946.7143312 140.2109375 1947.875 C139.07269531 1948.45540039 137.93445312 1949.03580078 136.76171875 1949.63378906 C131.97279009 1952.10334606 127.24435181 1954.67678196 122.5234375 1957.2734375 C113.41665789 1962.27283132 104.27862139 1967.21113672 95.12646484 1972.12695312 C89.16433658 1975.33237947 83.21663473 1978.56157439 77.28564453 1981.82421875 C63.14752356 1989.59351019 48.82787772 1997.00126765 34.4609375 2004.3359375 C33.3579834 2004.89909668 32.2550293 2005.46225586 31.11865234 2006.04248047 C25.11459229 2009.09887689 19.08930389 2012.10562245 13.03466797 2015.06054688 C10.76998291 2016.18279263 8.53852823 2017.34991011 6.30859375 2018.5390625 C-62.25282751 2053.6800753 -167.17387447 2052.38608215 -242.27734375 2052.5390625 C-244.43561305 2052.54590339 -246.59388229 2052.55276021 -248.75215149 2052.55963135 C-254.57006375 2052.57539699 -260.38794723 2052.58180469 -266.20587921 2052.58432007 C-268.6478911 2052.58540348 -271.08990278 2052.5871389 -273.53191376 2052.58950806 C-321.52770868 2052.63477068 -369.48043597 2051.74139868 -417.45730221 2050.45676434 C-510.87785913 2047.96156381 -605.00549401 2047.61960102 -697.08422852 2065.73413086 C-706.64243966 2067.39910086 -714.88710075 2066.17073757 -724.2265625 2064.0234375 C-771.60561902 2053.25599245 -821.18929379 2058.2455918 -869.05027771 2063.20666504 C-873.69055559 2063.68563901 -878.33271631 2064.14295588 -882.9765625 2064.5859375 C-883.88938995 2064.67319092 -884.80221741 2064.76044434 -885.7427063 2064.8503418 C-915.54562455 2067.59191737 -945.64439142 2066.69115281 -975.5390625 2066.3359375 C-975.87679687 2065.21574219 -976.21453125 2064.09554687 -976.5625 2062.94140625 C-977.01276296 2061.46867114 -977.46329803 2059.99601919 -977.9140625 2058.5234375 C-978.13578125 2057.78544922 -978.3575 2057.04746094 -978.5859375 2056.28710938 C-978.80507813 2055.57490234 -979.02421875 2054.86269531 -979.25 2054.12890625 C-979.44899902 2053.4743042 -979.64799805 2052.81970215 -979.85302734 2052.14526367 C-980.57321958 2050.04238614 -980.57321958 2050.04238614 -982.5390625 2047.3359375 C-985.22766402 2047.6944177 -986.29383436 2048.04367071 -988.06640625 2050.15625 C-988.53175781 2050.91679687 -988.99710938 2051.67734375 -989.4765625 2052.4609375 C-989.99347656 2053.26917969 -990.51039063 2054.07742187 -991.04296875 2054.91015625 C-991.96339319 2056.40254157 -992.8702445 2057.90352595 -993.75390625 2059.41796875 C-995.83524635 2062.74671133 -997.48521097 2064.72055113 -1001.2890625 2065.9609375 C-1006.25520613 2066.768516 -1010.15253136 2065.71049407 -1014.5390625 2063.3359375 C-1017.37110054 2061.25714583 -1020.03130719 2059.04765977 -1022.6953125 2056.7578125 C-1025.5253603 2054.34760695 -1028.42143948 2052.10268134 -1031.4140625 2049.8984375 C-1032.27773437 2049.26035156 -1033.14140625 2048.62226563 -1034.03125 2047.96484375 C-1038.85821397 2044.82957276 -1042.0922128 2044.0109593 -1047.67578125 2044.92578125 C-1049.94525672 2045.42535132 -1051.65214213 2045.95703416 -1053.5390625 2047.3359375 C-1054.2192992 2048.66239906 -1054.88398115 2049.99687415 -1055.5390625 2051.3359375 C-1059.11283047 2057.06079511 -1063.06280753 2061.94822734 -1069.5390625 2064.3359375 C-1078.79240998 2066.05291841 -1085.80651057 2063.29700079 -1093.5390625 2058.3359375 C-1096.84068467 2055.94468909 -1100.05223243 2053.4703222 -1103.2421875 2050.93359375 C-1116.98107374 2039.34507347 -1116.98107374 2039.34507347 -1133.7265625 2035.3359375 C-1143.41732104 2037.87777581 -1147.31051319 2043.04378509 -1152.5390625 2051.3359375 C-1155.01643507 2055.59421375 -1157.3053031 2059.94520418 -1159.5390625 2064.3359375 C-1160.5290625 2063.8409375 -1160.5290625 2063.8409375 -1161.5390625 2063.3359375 C-1164.33505331 2054.7491013 -1165.15433743 2045.78367249 -1165.9140625 2036.8359375 C-1167.604968 2018.81997981 -1170.46746418 2000.97327586 -1174.5390625 1983.3359375 C-1175.1990625 1983.3359375 -1175.8590625 1983.3359375 -1176.5390625 1983.3359375 C-1176.71356934 1983.93019531 -1176.88807617 1984.52445313 -1177.06787109 1985.13671875 C-1178.97784455 1991.57927838 -1181.03106861 1997.96407017 -1183.1640625 2004.3359375 C-1183.47601562 2005.27566406 -1183.78796875 2006.21539063 -1184.109375 2007.18359375 C-1184.4084375 2008.07949219 -1184.7075 2008.97539063 -1185.015625 2009.8984375 C-1185.419021 2011.10693359 -1185.419021 2011.10693359 -1185.83056641 2012.33984375 C-1186.5390625 2014.3359375 -1186.5390625 2014.3359375 -1187.5390625 2016.3359375 C-1189.1890625 2016.3359375 -1190.8390625 2016.3359375 -1192.5390625 2016.3359375 C-1193.35184359 2019.89942161 -1193.66750269 2023.19162474 -1193.671875 2026.84375 C-1193.67380859 2027.90480957 -1193.67574219 2028.96586914 -1193.67773438 2030.05908203 C-1193.6709668 2031.74300049 -1193.6709668 2031.74300049 -1193.6640625 2033.4609375 C-1193.66116211 2035.18546143 -1193.66116211 2035.18546143 -1193.65820312 2036.94482422 C-1193.60910772 2046.76526926 -1193.20004053 2056.53929889 -1192.5390625 2066.3359375 C-1194.8515625 2066.5859375 -1194.8515625 2066.5859375 -1197.5390625 2066.3359375 C-1209.45791932 2054.91255279 -1208.25205276 2023.04422923 -1210.01953125 2007.55078125 C-1210.14966614 2006.41095291 -1210.27980103 2005.27112457 -1210.41387939 2004.09675598 C-1211.07025802 1998.3246943 -1211.71562758 1992.55165686 -1212.34521484 1986.77661133 C-1213.61136746 1967.44368144 -1213.61136746 1967.44368144 -1219.5390625 1949.3359375 C-1220.1990625 1949.3359375 -1220.8590625 1949.3359375 -1221.5390625 1949.3359375 C-1224.73711955 1956.31029807 -1227.5390625 1962.57842714 -1227.5390625 1970.3359375 C-1225.74518761 1972.55158655 -1223.94615685 1973.73120794 -1221.5390625 1975.3359375 C-1219.84344197 1980.42279908 -1220.3544628 1985.76097899 -1220.3515625 1991.0859375 C-1220.33931641 1992.25382812 -1220.32707031 1993.42171875 -1220.31445312 1994.625 C-1220.30435035 2000.56543023 -1220.39651063 2005.7605237 -1222.5390625 2011.3359375 C-1223.5390625 2012.3359375 -1223.5390625 2012.3359375 -1225.9140625 2012.5234375 C-1228.5390625 2012.3359375 -1228.5390625 2012.3359375 -1231.5390625 2010.3359375 C-1232.43152641 2015.00768494 -1232.74670103 2019.59774536 -1232.8984375 2024.33984375 C-1232.9624127 2025.90173936 -1233.02755538 2027.4635875 -1233.09375 2029.02539062 C-1233.19417612 2031.45146149 -1233.28840741 2033.87692202 -1233.36230469 2036.30395508 C-1234.10619237 2059.90306737 -1234.10619237 2059.90306737 -1240.5390625 2066.3359375 C-1243.8515625 2066.7109375 -1243.8515625 2066.7109375 -1247.5390625 2066.3359375 C-1250.59008938 2063.12020502 -1252.45135592 2059.77100512 -1254.23046875 2055.73828125 C-1254.70033203 2054.68962891 -1255.17019531 2053.64097656 -1255.65429688 2052.56054688 C-1256.13189453 2051.47580078 -1256.60949219 2050.39105469 -1257.1015625 2049.2734375 C-1258.05667742 2047.11388046 -1259.01614816 2044.95624336 -1259.98046875 2042.80078125 C-1260.40013916 2041.8480835 -1260.81980957 2040.89538574 -1261.25219727 2039.91381836 C-1262.49148924 2037.43123744 -1263.65837384 2035.37773358 -1265.5390625 2033.3359375 C-1266.5290625 2033.3359375 -1267.5190625 2033.3359375 -1268.5390625 2033.3359375 C-1269.0134375 2033.9959375 -1269.4878125 2034.6559375 -1269.9765625 2035.3359375 C-1270.4921875 2035.9959375 -1271.0078125 2036.6559375 -1271.5390625 2037.3359375 C-1272.8590625 2037.3359375 -1274.1790625 2037.3359375 -1275.5390625 2037.3359375 C-1276.45768034 2034.58008398 -1276.66110572 2032.9763306 -1276.65258789 2030.13989258 C-1276.65251236 2029.29924759 -1276.65243683 2028.4586026 -1276.65235901 2027.59248352 C-1276.64719772 2026.68926865 -1276.64203644 2025.78605377 -1276.63671875 2024.85546875 C-1276.63459633 2023.46348518 -1276.63459633 2023.46348518 -1276.63243103 2022.04338074 C-1276.62683187 2019.07836692 -1276.61427954 2016.11342851 -1276.6015625 2013.1484375 C-1276.59654739 2011.13867297 -1276.5919845 2009.12890725 -1276.58789062 2007.11914062 C-1276.57686271 2002.19137718 -1276.55959867 1997.26367013 -1276.5390625 1992.3359375 C-1282.59217953 1994.35364318 -1285.88581315 2003.06100275 -1288.68994141 2008.61572266 C-1291.05736149 2013.48426426 -1293.3163645 2018.39989275 -1295.5390625 2023.3359375 C-1298.23978397 2022.05474068 -1300.61810084 2020.64908587 -1303.015625 2018.8671875 C-1355.28121304 1980.63121935 -1414.92200642 1974.80318718 -1477.81732178 1975.25689697 C-1484.82085064 1975.30625993 -1491.82446507 1975.33957503 -1498.828125 1975.36328125 C-1499.95862778 1975.36718054 -1499.95862778 1975.36718054 -1501.11196899 1975.3711586 C-1511.56710231 1975.40027884 -1522.00336802 1975.27003272 -1532.453125 1974.91796875 C-1533.58102448 1974.8805809 -1534.70892395 1974.84319305 -1535.8710022 1974.80467224 C-1586.80137449 1972.84082454 -1635.65223443 1958.96069566 -1675.5390625 1926.3359375 C-1676.08208008 1925.89588379 -1676.62509766 1925.45583008 -1677.18457031 1925.00244141 C-1690.37678656 1914.24482367 -1703.00989835 1902.34195281 -1713.515625 1888.91796875 C-1715.71620497 1886.10989277 -1718.02868889 1883.41851415 -1720.3515625 1880.7109375 C-1734.56672171 1863.65714742 -1746.33623614 1844.45838566 -1757.5390625 1825.3359375 C-1757.9098291 1824.77205322 -1758.2805957 1824.20816895 -1758.66259766 1823.62719727 C-1761.43606349 1819.25507665 -1762.17217339 1815.59216024 -1762.0390625 1810.5234375 C-1762.02842773 1809.76208496 -1762.01779297 1809.00073242 -1762.00683594 1808.21630859 C-1761.5391618 1793.24185628 -1758.43009166 1778.33180318 -1755.3515625 1763.7109375 C-1752.00826405 1747.71727727 -1751.17021187 1734.89469402 -1759.19921875 1720.23046875 C-1761.91958012 1714.35353647 -1761.69790615 1708.19261874 -1761.75 1701.83984375 C-1761.77563687 1699.92040026 -1761.80203703 1698.00096686 -1761.82910156 1696.08154297 C-1761.84898132 1694.57113434 -1761.84898132 1694.57113434 -1761.8692627 1693.0302124 C-1762.31817059 1661.64885963 -1764.83072742 1630.75301404 -1768.43331909 1599.59130859 C-1769.88816139 1586.97735368 -1771.11583822 1574.3883439 -1771.8515625 1561.7109375 C-1771.92769775 1560.4027002 -1772.00383301 1559.09446289 -1772.08227539 1557.74658203 C-1772.71454063 1545.7549081 -1772.49963311 1534.06021229 -1771.6015625 1522.0859375 C-1771.51455078 1520.85875 -1771.42753906 1519.6315625 -1771.33789062 1518.3671875 C-1770.99908684 1513.72934016 -1770.658967 1509.13971113 -1769.97265625 1504.5390625 C-1768.94849902 1496.97321628 -1769.73578043 1490.28849335 -1771.4765625 1482.8984375 C-1772.91683633 1476.37086601 -1774.30831882 1470.03711865 -1774.5390625 1463.3359375 C-1774.590625 1462.03527344 -1774.6421875 1460.73460937 -1774.6953125 1459.39453125 C-1775.24820646 1438.41197711 -1771.45412433 1417.74480226 -1767.69677734 1397.18164062 C-1764.27735362 1378.28476048 -1763.2739068 1360.02785731 -1763.73095703 1340.84008789 C-1763.79153777 1338.10560671 -1763.82689014 1335.37165766 -1763.859375 1332.63671875 C-1763.88629425 1331.81891434 -1763.9132135 1331.00110992 -1763.94094849 1330.15852356 C-1764.00123226 1323.2095835 -1762.02089649 1318.02459099 -1757.2890625 1312.8984375 C-1753.73156366 1310.87713134 -1750.62325459 1310.21948396 -1746.5390625 1310.3359375 C-1744.85669779 1310.96193367 -1743.1866663 1311.62346018 -1741.5390625 1312.3359375 C-1738.87239583 1312.66927083 -1738.87239583 1312.66927083 -1736.5390625 1311.3359375 C-1731.48412181 1302.16215626 -1731.58055105 1290.21884945 -1731.30249023 1279.93554688 C-1730.44054178 1250.42420561 -1722.37520412 1218.57552455 -1700.7265625 1197.3984375 C-1695.54078179 1192.93415671 -1689.58910125 1189.76127481 -1683.64941406 1186.42236328 C-1676.51455986 1182.39862099 -1669.36863397 1178.16550897 -1663.5390625 1172.3359375 C-1663.61082331 1169.90439573 -1663.82106374 1167.63835105 -1664.140625 1165.234375 C-1664.28318222 1164.06616714 -1664.28318222 1164.06616714 -1664.42861938 1162.87435913 C-1664.78310882 1160.02599308 -1665.15918849 1157.18102972 -1665.5390625 1154.3359375 C-1665.69032593 1153.19838013 -1665.84158936 1152.06082275 -1665.99743652 1150.88879395 C-1666.79605736 1144.91029271 -1667.60478447 1138.93321175 -1668.41942978 1132.95687771 C-1674.94467749 1085.08557334 -1674.94467749 1085.08557334 -1677.0390625 1061.1484375 C-1677.11469421 1060.28752502 -1677.19032593 1059.42661255 -1677.26824951 1058.53961182 C-1677.67476368 1053.83966948 -1678.04769616 1049.13836094 -1678.38586426 1044.43301392 C-1678.52823636 1042.48413269 -1678.68491793 1040.53631129 -1678.84277344 1038.58862305 C-1679.96867936 1022.93512491 -1679.78500598 1007.20949162 -1679.7890625 991.5234375 C-1679.78950436 990.74131771 -1679.78994621 989.95919792 -1679.79040146 989.15337753 C-1679.79975679 957.56296369 -1678.118407 926.86718479 -1673.07739258 895.64379883 C-1671.16495895 883.59873943 -1671.35661047 875.62878193 -1678.5390625 865.3359375 C-1682.50509223 861.08452925 -1687.03755623 857.68036366 -1691.7265625 854.2734375 C-1706.53331414 843.190364 -1708.73465777 825.12820692 -1712.00195312 808.00439453 C-1712.72507427 804.41179723 -1713.60966823 800.88030927 -1714.5390625 797.3359375 C-1715.1165625 798.0578125 -1715.6940625 798.7796875 -1716.2890625 799.5234375 C-1718.37239583 802.12760417 -1720.45572917 804.73177083 -1722.5390625 807.3359375 C-1724.4765625 806.5234375 -1724.4765625 806.5234375 -1726.5390625 805.3359375 C-1727.62028202 802.09227893 -1727.695909 799.65221761 -1727.75 796.23828125 C-1727.77610352 794.97999512 -1727.80220703 793.72170898 -1727.82910156 792.42529297 C-1727.84235474 791.75093201 -1727.85560791 791.07657104 -1727.8692627 790.3817749 C-1729.19216234 728.12438746 -1741.41786141 666.6906265 -1752.74801636 605.64794922 C-1760.51855457 563.77966595 -1767.78634784 521.99705314 -1772.9140625 479.7109375 C-1773.04258228 478.65260838 -1773.04258228 478.65260838 -1773.17369843 477.57289886 C-1776.29279324 451.83656677 -1778.94415424 426.41212333 -1778.8515625 400.4609375 C-1778.84940735 399.36653351 -1778.8472522 398.27212952 -1778.84503174 397.14456177 C-1778.69178322 348.5900279 -1768.81844109 301.49300312 -1733.953125 265.6796875 C-1713.36890762 246.14631605 -1687.42135275 235.26280018 -1661.14160156 225.66503906 C-1632.70777654 215.92706675 -1632.70777654 215.92706675 -1609.26416016 197.88891602 C-1607.06217517 195.90663092 -1604.83522896 194.90860851 -1602.1328125 193.69140625 C-1601.01511475 193.18673828 -1599.89741699 192.68207031 -1598.74584961 192.16210938 C-1597.51063332 191.61502797 -1596.27502455 191.06883199 -1595.0390625 190.5234375 C-1594.40437042 190.24137451 -1593.76967834 189.95931152 -1593.11575317 189.66870117 C-1513.68485131 154.42024591 -1429.90246557 130.19496798 -1245.5390625 100.3359375 C-1244.73319702 100.2471936 -1243.92733154 100.15844971 -1243.0970459 100.0670166 C-1218.00550359 97.31925057 -1192.85627311 95.63386779 -1167.6640625 94.1484375 C-1166.94399899 94.10573101 -1166.22393547 94.06302452 -1165.48205185 94.0190239 C-1161.23654009 93.76753988 -1156.99077032 93.52129397 -1152.74456978 93.28171158 C-1150.86102617 93.17513505 -1148.97761903 93.06615451 -1147.09422302 92.95700073 C-1123.01294851 91.63151702 -1098.93140464 91.16765133 -1074.81780267 91.13610268 C-1072.52300331 91.13274324 -1070.2282119 91.12783534 -1067.93341637 91.1224823 C-1057.16486686 91.09768566 -1046.39634928 91.08792902 -1035.62777281 91.08637428 C-1033.02674181 91.08593542 -1030.4257112 91.08506947 -1027.82468033 91.08415222 C-975.11772478 91.06898448 -922.49715956 91.65386816 -869.82206726 93.62783813 C-852.55246523 94.27495538 -835.28079099 94.84299755 -818.0078125 95.390625 C-817.3071599 95.41285 -816.60650731 95.435075 -815.88462281 95.45797348 C-809.51545564 95.65996559 -803.14627803 95.86162666 -796.77708149 96.06269073 C-787.30196542 96.36203116 -777.8270832 96.66797016 -768.35229492 96.97753906 C-726.95039209 98.32901293 -726.95039209 98.32901293 -685.5390625 99.3359375 C-684.6133205 99.35504181 -683.68757851 99.37414612 -682.73378372 99.39382935 C-606.45027529 101.32174967 -606.45027529 101.32174967 -531.12744141 90.99169922 C-522.50963036 89.07893312 -513.84701085 87.42637566 -505.17578125 85.77734375 C-501.85353803 85.14355616 -498.53147566 84.50882467 -495.20947266 83.8737793 C-494.36715088 83.71284444 -493.5248291 83.55190958 -492.65698242 83.38609791 C-483.06973344 81.55103409 -473.49354422 79.66050568 -463.91796875 77.765625 C-462.57878513 77.50078969 -462.57878513 77.50078969 -461.2125473 77.23060417 C-455.62546709 76.12566538 -450.03862893 75.01950714 -444.45188141 73.91288757 C-248.46071358 35.09237652 -248.46071358 35.09237652 -160.4140625 28.6484375 C-159.55190125 28.58372253 -158.68973999 28.51900757 -157.80145264 28.45233154 C-148.1910666 27.74109237 -138.64163313 27.27610706 -129.00390625 27.2734375 C-102.97482082 27.1321857 -81.7803701 21.36879185 -57.48487854 12.22209167 C-49.5320962 9.25487285 -41.54140303 6.92631913 -33.2890625 4.9609375 C-32.22631104 4.70610596 -31.16355957 4.45127441 -30.06860352 4.1887207 C-27.22988549 3.53323871 -24.39578885 2.90828131 -21.5390625 2.3359375 C-20.33976608 2.08591476 -20.33976608 2.08591476 -19.11624146 1.83084106 C-12.68948021 0.56029869 -6.54382884 0.01625312 0 0 Z " fill="#FF5858" transform="translate(1779.5390625,-0.3359375)"/>
<path d="M0 0 C339.9 0 679.8 0 1030 0 C1030 153 1030 153 1017 174 C1014.2424503 178.51659163 1011.48971403 183.03518592 1008.75 187.5625 C1008.03680825 188.73924054 1007.32350733 189.91591493 1006.61010742 191.0925293 C1005.14052992 193.51650974 1003.67140109 195.94076115 1002.20263672 198.36523438 C998.57652195 204.35004109 994.94440248 210.33120447 991.3125 216.3125 C990.78035385 217.18888626 990.78035385 217.18888626 990.23745728 218.08297729 C988.48757001 220.96476005 986.73750677 223.84643577 984.98730469 226.72802734 C983.7091529 228.83242418 982.43114619 230.93690915 981.15332031 233.04150391 C974.53215182 243.94470222 967.88106415 254.82858089 961.1875 265.6875 C953.4519607 278.23880088 945.79516556 290.83676931 938.15429688 303.44580078 C934.54376231 309.40342881 930.92793839 315.35784716 927.3125 321.3125 C926.95812866 321.89621368 926.60375732 322.47992737 926.23864746 323.08132935 C919.73465013 333.79448444 913.22043076 344.50139536 906.70166016 355.20556641 C904.38628787 359.00782626 902.07164447 362.81052956 899.75708008 366.61328125 C898.58644765 368.53652118 897.4157121 370.45969835 896.24487305 372.3828125 C893.35140253 377.13553632 890.45933318 381.88910103 887.5703125 386.64453125 C881.47282975 396.67760682 875.34857542 406.69333455 869.1875 416.6875 C861.45190558 429.23876642 853.79516524 441.83676984 846.15429688 454.44580078 C842.54376231 460.40342881 838.92793839 466.35784716 835.3125 472.3125 C834.95812866 472.89621368 834.60375732 473.47992737 834.23864746 474.08132935 C828.29522788 483.87112053 822.34402834 493.65615527 816.38671875 503.4375 C814.11635504 507.16537307 811.84828463 510.89462682 809.58203125 514.625 C803.48077576 524.66466865 797.35256015 534.68687074 791.1875 544.6875 C783.45190558 557.23876642 775.79516524 569.83676984 768.15429688 582.44580078 C764.54376231 588.40342881 760.92793839 594.35784716 757.3125 600.3125 C756.78094299 601.18807053 756.78094299 601.18807053 756.23864746 602.08132935 C749.73465013 612.79448444 743.22043076 623.50139536 736.70166016 634.20556641 C734.38628787 638.00782626 732.07164447 641.81052956 729.75708008 645.61328125 C728.58644765 647.53652118 727.4157121 649.45969835 726.24487305 651.3828125 C723.35140253 656.13553632 720.45933318 660.88910103 717.5703125 665.64453125 C711.47282975 675.67760682 705.34857542 685.69333455 699.1875 695.6875 C691.45190558 708.23876642 683.79516524 720.83676984 676.15429688 733.44580078 C672.54376231 739.40342881 668.92793839 745.35784716 665.3125 751.3125 C664.78094299 752.18807053 664.78094299 752.18807053 664.23864746 753.08132935 C658.29522788 762.87112053 652.34402834 772.65615527 646.38671875 782.4375 C644.11635504 786.16537307 641.84828463 789.89462682 639.58203125 793.625 C633.48077576 803.66466865 627.35256015 813.68687074 621.1875 823.6875 C613.45190558 836.23876642 605.79516524 848.83676984 598.15429688 861.44580078 C594.54376231 867.40342881 590.92793839 873.35784716 587.3125 879.3125 C586.78094299 880.18807053 586.78094299 880.18807053 586.23864746 881.08132935 C580.29522788 890.87112053 574.34402834 900.65615527 568.38671875 910.4375 C566.11635504 914.16537307 563.84828463 917.89462682 561.58203125 921.625 C555.48077576 931.66466865 549.35256015 941.68687074 543.1875 951.6875 C535.45190558 964.23876642 527.79516524 976.83676984 520.15429688 989.44580078 C516.54376231 995.40342881 512.92793839 1001.35784716 509.3125 1007.3125 C508.78094299 1008.18807053 508.78094299 1008.18807053 508.23864746 1009.08132935 C501.73465013 1019.79448444 495.22043076 1030.50139536 488.70166016 1041.20556641 C486.38628787 1045.00782626 484.07164447 1048.81052956 481.75708008 1052.61328125 C480.58644765 1054.53652118 479.4157121 1056.45969835 478.24487305 1058.3828125 C475.35140253 1063.13553632 472.45933318 1067.88910103 469.5703125 1072.64453125 C463.47282975 1082.67760682 457.34857542 1092.69333455 451.1875 1102.6875 C443.45190558 1115.23876642 435.79516524 1127.83676984 428.15429688 1140.44580078 C424.54376231 1146.40342881 420.92793839 1152.35784716 417.3125 1158.3125 C416.95812866 1158.89621368 416.60375732 1159.47992737 416.23864746 1160.08132935 C410.29522788 1169.87112053 404.34402834 1179.65615527 398.38671875 1189.4375 C396.11635504 1193.16537307 393.84828463 1196.89462682 391.58203125 1200.625 C385.48077576 1210.66466865 379.35256015 1220.68687074 373.1875 1230.6875 C365.45190558 1243.23876642 357.79516524 1255.83676984 350.15429688 1268.44580078 C346.54376231 1274.40342881 342.92793839 1280.35784716 339.3125 1286.3125 C338.95812866 1286.89621368 338.60375732 1287.47992737 338.23864746 1288.08132935 C331.73465013 1298.79448444 325.22043076 1309.50139536 318.70166016 1320.20556641 C316.38628787 1324.00782626 314.07164447 1327.81052956 311.75708008 1331.61328125 C310.58644765 1333.53652118 309.4157121 1335.45969835 308.24487305 1337.3828125 C305.35140253 1342.13553632 302.45933318 1346.88910103 299.5703125 1351.64453125 C293.47282975 1361.67760682 287.34857542 1371.69333455 281.1875 1381.6875 C273.10237154 1394.80589734 265.10403503 1407.97592091 257.11816406 1421.15484619 C253.98019848 1426.33300326 250.84079769 1431.51028892 247.70016479 1436.68682861 C246.58479239 1438.52574648 245.47022855 1440.36515264 244.35571289 1442.20458984 C243.6827417 1443.31398926 243.00977051 1444.42338867 242.31640625 1445.56640625 C241.42610718 1447.03509155 241.42610718 1447.03509155 240.51782227 1448.53344727 C239.38219726 1450.3789064 238.20196808 1452.19704788 237 1454 C501 1454 765 1454 1037 1454 C1037 1511.42 1037 1568.84 1037 1628 C685.88 1628 334.76 1628 -27 1628 C-27 1476.75322458 -27 1476.75322458 -4.51171875 1440.671875 C-0.4828422 1434.18405428 3.47865569 1427.6556628 7.4375 1421.125 C7.79935394 1420.52824463 8.16120789 1419.93148926 8.5340271 1419.31665039 C10.33917204 1416.33960179 12.14384183 1413.36226557 13.94824219 1410.38476562 C21.85944724 1397.33372482 29.80418606 1384.30419811 37.8125 1371.3125 C45.24739714 1359.25008101 52.60743819 1347.14336356 59.9520874 1335.02590942 C64.49512478 1327.53159782 69.05476017 1320.04739852 73.61328125 1312.5625 C75.88364496 1308.83462693 78.15171537 1305.10537318 80.41796875 1301.375 C86.51922406 1291.33533165 92.647395 1281.31310144 98.8125 1271.3125 C106.24745049 1259.25011432 113.60743848 1247.14336308 120.9520874 1235.02590942 C125.49512478 1227.53159782 130.05476017 1220.04739852 134.61328125 1212.5625 C136.88364496 1208.83462693 139.15171537 1205.10537318 141.41796875 1201.375 C147.51922406 1191.33533165 153.647395 1181.31310144 159.8125 1171.3125 C167.24745049 1159.25011432 174.60743848 1147.14336308 181.9520874 1135.02590942 C186.49512478 1127.53159782 191.05476017 1120.04739852 195.61328125 1112.5625 C197.88364496 1108.83462693 200.15171537 1105.10537318 202.41796875 1101.375 C208.51922406 1091.33533165 214.647395 1081.31310144 220.8125 1071.3125 C226.45019421 1062.16596405 232.0532176 1052.99926666 237.625 1043.8125 C237.9816272 1043.2245163 238.33825439 1042.63653259 238.70568848 1042.0307312 C240.46966217 1039.12209479 242.23319793 1036.2131931 243.99658203 1033.30419922 C251.8929884 1020.28080611 259.82067362 1007.27758023 267.8125 994.3125 C273.38604301 985.26914665 278.92806002 976.20748593 284.4375 967.125 C284.78929321 966.54507294 285.14108643 965.96514587 285.50354004 965.36764526 C288.00350467 961.24579035 290.50192631 957.12300113 293 953 C295.85310815 948.29102437 298.70689946 943.58246471 301.5625 938.875 C301.91464569 938.29445862 302.26679138 937.71391724 302.62960815 937.11578369 C308.37250975 927.65125552 314.16547566 918.21813477 319.97631836 908.79516602 C326.68718183 897.90373758 333.32100011 886.96610054 339.95204163 876.02598572 C344.49509286 868.53164783 349.05474475 861.04742384 353.61328125 853.5625 C355.88364496 849.83462693 358.15171537 846.10537318 360.41796875 842.375 C366.51922406 832.33533165 372.647395 822.31310144 378.8125 812.3125 C386.24745049 800.25011432 393.60743848 788.14336308 400.9520874 776.02590942 C405.49512478 768.53159782 410.05476017 761.04739852 414.61328125 753.5625 C416.88364496 749.83462693 419.15171537 746.10537318 421.41796875 742.375 C427.51922406 732.33533165 433.647395 722.31310144 439.8125 712.3125 C447.24745049 700.25011432 454.60743848 688.14336308 461.9520874 676.02590942 C466.49512478 668.53159782 471.05476017 661.04739852 475.61328125 653.5625 C477.88364496 649.83462693 480.15171537 646.10537318 482.41796875 642.375 C488.51922406 632.33533165 494.647395 622.31310144 500.8125 612.3125 C506.45019421 603.16596405 512.0532176 593.99926666 517.625 584.8125 C518.1599408 583.93052444 518.1599408 583.93052444 518.70568848 583.0307312 C520.46966217 580.12209479 522.23319793 577.2131931 523.99658203 574.30419922 C531.8929884 561.28080611 539.82067362 548.27758023 547.8125 535.3125 C553.38604301 526.26914665 558.92806002 517.20748593 564.4375 508.125 C564.78929321 507.54507294 565.14108643 506.96514587 565.50354004 506.36764526 C568.00350467 502.24579035 570.50192631 498.12300113 573 494 C575.85310815 489.29102437 578.70689946 484.58246471 581.5625 479.875 C581.91464569 479.29445862 582.26679138 478.71391724 582.62960815 478.11578369 C588.37250975 468.65125552 594.16547566 459.21813477 599.97631836 449.79516602 C606.68718183 438.90373758 613.32100011 427.96610054 619.95204163 417.02598572 C624.49509286 409.53164783 629.05474475 402.04742384 633.61328125 394.5625 C635.88364496 390.83462693 638.15171537 387.10537318 640.41796875 383.375 C646.51922406 373.33533165 652.647395 363.31310144 658.8125 353.3125 C666.24745049 341.25011432 673.60743848 329.14336308 680.9520874 317.02590942 C685.49512478 309.53159782 690.05476017 302.04739852 694.61328125 294.5625 C696.88364496 290.83462693 699.15171537 287.10537318 701.41796875 283.375 C707.51922406 273.33533165 713.647395 263.31310144 719.8125 253.3125 C727.23997664 241.26223982 734.59264728 229.16772965 741.9294281 217.06216431 C745.97326886 210.39147326 750.0330739 203.73049681 754.09619141 197.0715332 C758.76944999 189.40343989 763.37942845 181.70095258 768 174 C514.56 174 261.12 174 0 174 C0 116.58 0 59.16 0 0 Z " fill="#FFFEFE" transform="translate(495,219)"/>
</svg>
